<svg width="133" height="24" viewBox="0 0 133 24" fill="none" xmlns="http://www.w3.org/2000/svg">
<g id="Logo-Moducha">
<g id="Moducha">
<path d="M32 20.1627V19.0301L34.241 18.7169V5.58434L32.0964 5.31928V4.18675H37.4699L42.1687 16.1627L46.6024 4.18675H51.9759V5.31928L50 5.53614C49.9839 6.53213 49.9679 7.54418 49.9518 8.57229C49.9518 9.58434 49.9518 10.6125 49.9518 11.6566V12.6928C49.9518 13.7209 49.9518 14.749 49.9518 15.7771C49.9679 16.7892 49.9839 17.8012 50 18.8133L52.0241 19.0301V20.1627H44.9157V19.0301L46.8193 18.7892C46.8514 17.7932 46.8675 16.8052 46.8675 15.8253C46.8675 14.8293 46.8675 13.8735 46.8675 12.9578L46.8916 7.22289L42.1205 20.1627H40.5783L35.5181 7.22289L35.6386 11.9458V18.7169L37.6386 19.0301V20.1627H32Z" fill="#26BB69"/>
<path d="M59.0843 20.5C57.992 20.5 57.004 20.259 56.1205 19.7771C55.253 19.2952 54.5622 18.5964 54.0482 17.6807C53.5341 16.7651 53.2771 15.6727 53.2771 14.4036C53.2771 13.1185 53.5422 12.0181 54.0723 11.1024C54.6185 10.1867 55.3333 9.48795 56.2169 9.00602C57.1004 8.5241 58.0562 8.28313 59.0843 8.28313C60.1124 8.28313 61.0683 8.5241 61.9518 9.00602C62.8353 9.48795 63.5502 10.1867 64.0964 11.1024C64.6426 12.002 64.9157 13.1024 64.9157 14.4036C64.9157 15.6888 64.6506 16.7892 64.1205 17.7048C63.6064 18.6044 62.9076 19.2952 62.0241 19.7771C61.1566 20.259 60.1767 20.5 59.0843 20.5ZM59.0843 19.3193C59.9518 19.3193 60.6104 18.9177 61.0602 18.1145C61.5261 17.3112 61.759 16.0823 61.759 14.4277C61.759 11.1185 60.8675 9.46386 59.0843 9.46386C57.3173 9.46386 56.4337 11.1185 56.4337 14.4277C56.4337 16.0823 56.6586 17.3112 57.1084 18.1145C57.5582 18.9177 58.2169 19.3193 59.0843 19.3193Z" fill="#26BB69"/>
<path d="M69.8686 14.4518C69.8686 15.9137 70.1417 17.006 70.6879 17.7289C71.2501 18.4357 71.9569 18.7892 72.8084 18.7892C73.226 18.7892 73.6035 18.7088 73.9409 18.5482C74.2943 18.3715 74.6236 18.1225 74.9288 17.8012V10.8855C74.222 10.2751 73.5232 9.96988 72.8324 9.96988C72.0292 9.96988 71.3304 10.3313 70.7361 11.0542C70.1577 11.7771 69.8686 12.9096 69.8686 14.4518ZM75.218 20.4277L75.0252 18.9096C74.5754 19.4237 74.0774 19.8173 73.5312 20.0904C72.9851 20.3635 72.3586 20.5 71.6517 20.5C70.7039 20.5 69.8606 20.259 69.1216 19.7771C68.3987 19.2952 67.8284 18.6044 67.4108 17.7048C66.9931 16.8052 66.7843 15.7369 66.7843 14.5C66.7843 13.2309 67.0172 12.1305 67.4831 11.1988C67.965 10.2671 68.5995 9.55221 69.3867 9.05422C70.1899 8.54016 71.0654 8.28313 72.0132 8.28313C72.6236 8.28313 73.1698 8.39558 73.6517 8.62048C74.1497 8.84538 74.6156 9.21486 75.0493 9.72892V4.76506L73.1698 4.5241V3.58434L77.5794 2.5L77.9409 2.71687L77.8445 6.11446V18.9096L79.4108 19.1747V20.1627L75.218 20.4277Z" fill="#26BB69"/>
<path d="M89.2956 20.3795L89.1028 18.259C87.9301 19.753 86.5646 20.5 85.0064 20.5C84.0104 20.5 83.2072 20.1787 82.5968 19.5361C82.0024 18.8775 81.7132 17.753 81.7293 16.1627L81.8257 10.2108L80.2594 9.87349V8.93374L84.4763 8.42771L84.7654 8.69277L84.6449 12.0663V16.0663C84.6449 16.9659 84.7815 17.6004 85.0546 17.9699C85.3437 18.3233 85.7534 18.5 86.2835 18.5C86.7333 18.5 87.1911 18.3715 87.657 18.1145C88.1389 17.8574 88.5968 17.5281 89.0305 17.1265L89.1028 10.2108L87.5847 9.87349V8.98193L91.7052 8.42771L92.0184 8.69277L91.9462 12.0663V18.8614L93.416 19.1747V20.1627L89.2956 20.3795Z" fill="#26BB69"/>
<path d="M100.473 20.5C99.3807 20.5 98.4008 20.2671 97.5333 19.8012C96.6658 19.3193 95.9831 18.6285 95.4851 17.7289C95.0032 16.8133 94.7622 15.7129 94.7622 14.4277C94.7622 13.1265 95.0353 12.0181 95.5815 11.1024C96.1438 10.1867 96.8827 9.48795 97.7984 9.00602C98.714 8.5241 99.71 8.28313 100.786 8.28313C101.573 8.28313 102.28 8.43574 102.907 8.74096C103.549 9.03012 104.063 9.4237 104.449 9.92169C104.851 10.4197 105.092 10.9819 105.172 11.6084C104.979 12.3153 104.521 12.6687 103.798 12.6687C102.899 12.6687 102.377 12.1064 102.232 10.9819L101.919 9.53614C101.774 9.50402 101.63 9.47992 101.485 9.46386C101.341 9.44779 101.196 9.43976 101.051 9.43976C100.473 9.43976 99.9349 9.60843 99.4369 9.94578C98.955 10.2671 98.5614 10.7731 98.2562 11.4639C97.951 12.1546 97.7984 13.0301 97.7984 14.0904C97.7984 15.5522 98.1277 16.6687 98.7863 17.4398C99.461 18.2108 100.337 18.5964 101.413 18.5964C102.055 18.5964 102.634 18.4518 103.148 18.1627C103.662 17.8735 104.096 17.4799 104.449 16.9819L105.172 17.512C104.77 18.492 104.168 19.239 103.365 19.753C102.577 20.251 101.614 20.5 100.473 20.5Z" fill="#26BB69"/>
<path d="M106.266 20.1627V19.1747L107.856 18.8614C107.872 18.2671 107.88 17.6245 107.88 16.9337C107.88 16.2269 107.88 15.6165 107.88 15.1024V4.76506L106.121 4.5241V3.58434L110.434 2.5L110.796 2.71687L110.7 6.11446V10.4277C111.936 8.99799 113.31 8.28313 114.82 8.28313C115.864 8.28313 116.675 8.62851 117.254 9.31928C117.832 10.01 118.121 11.1024 118.121 12.5964V15.1024C118.121 15.6486 118.121 16.2671 118.121 16.9578C118.121 17.6486 118.129 18.2912 118.145 18.8855L119.615 19.1747V20.1627H113.663V19.1747L115.206 18.8614C115.222 18.2671 115.23 17.6325 115.23 16.9578C115.23 16.2671 115.23 15.6486 115.23 15.1024V12.8133C115.23 11.8655 115.101 11.2149 114.844 10.8614C114.603 10.492 114.177 10.3072 113.567 10.3072C112.667 10.3072 111.736 10.7651 110.772 11.6807V15.1024C110.772 15.6325 110.772 16.243 110.772 16.9337C110.772 17.6245 110.78 18.2751 110.796 18.8855L112.218 19.1747V20.1627H106.266Z" fill="#26BB69"/>
<path d="M130.157 20.4518C129.514 20.4518 128.992 20.2912 128.59 19.9699C128.189 19.6486 127.916 19.2068 127.771 18.6446C127.177 19.255 126.639 19.7209 126.157 20.0422C125.675 20.3474 125.048 20.5 124.277 20.5C123.377 20.5 122.614 20.243 121.988 19.7289C121.377 19.1988 121.072 18.4438 121.072 17.4639C121.072 16.9498 121.193 16.4759 121.434 16.0422C121.675 15.5924 122.1 15.1747 122.711 14.7892C123.337 14.4036 124.229 14.0261 125.386 13.6566C125.707 13.5442 126.068 13.4317 126.47 13.3193C126.871 13.2068 127.281 13.0944 127.699 12.9819V12.3072C127.699 11.1827 127.538 10.4277 127.217 10.0422C126.912 9.64056 126.365 9.43976 125.578 9.43976C125.434 9.43976 125.273 9.44779 125.096 9.46386C124.936 9.47992 124.767 9.50402 124.59 9.53614L124.301 10.8614C124.237 11.4398 124.068 11.8655 123.795 12.1386C123.522 12.4116 123.185 12.5482 122.783 12.5482C122.012 12.5482 121.562 12.1867 121.434 11.4639C121.578 10.5 122.092 9.72892 122.976 9.1506C123.875 8.57229 125.056 8.28313 126.518 8.28313C127.916 8.28313 128.936 8.62048 129.578 9.29518C130.221 9.95382 130.542 11.0703 130.542 12.6446V17.8976C130.542 18.6205 130.775 18.9819 131.241 18.9819C131.546 18.9819 131.827 18.8052 132.084 18.4518L132.639 18.9337C132.349 19.4799 132.004 19.8735 131.602 20.1145C131.217 20.3394 130.735 20.4518 130.157 20.4518ZM123.892 16.9578C123.892 17.5843 124.052 18.0422 124.373 18.3313C124.711 18.6044 125.12 18.741 125.602 18.741C125.875 18.741 126.149 18.6767 126.422 18.5482C126.695 18.4197 127.12 18.1546 127.699 17.753V13.9458C127.361 14.0582 127.04 14.1627 126.735 14.259C126.446 14.3554 126.197 14.4438 125.988 14.5241C125.185 14.8454 124.631 15.2149 124.325 15.6325C124.036 16.0502 123.892 16.492 123.892 16.9578Z" fill="#26BB69"/>
</g>
<g id="Group 5.1">
<path id="Subtract" fill-rule="evenodd" clip-rule="evenodd" d="M14 0.5C6.26801 0.5 0 6.76801 0 14.5V22.0858L14.2929 7.79289C14.6834 7.40237 15.3166 7.40237 15.7071 7.79289C16.0976 8.18342 16.0976 8.81658 15.7071 9.20711L1.41421 23.5H9C16.732 23.5 23 17.232 23 9.5V0.5H14Z" fill="#26BB69"/>
</g>
</g>
</svg>
